<?xml version="1.0" encoding="UTF-8" standalone="no"?>
<!DOCTYPE svg PUBLIC "-//W3C//DTD SVG 1.1//EN" "http://www.w3.org/Graphics/SVG/1.1/DTD/svg11.dtd">
<svg width="100%" height="100%" viewBox="0 0 506 1017" version="1.1" xmlns="http://www.w3.org/2000/svg" xmlns:xlink="http://www.w3.org/1999/xlink" xml:space="preserve" xmlns:serif="http://www.serif.com/" style="fill-rule:evenodd;clip-rule:evenodd;stroke-linecap:round;stroke-linejoin:round;stroke-miterlimit:1.5;">
    <g transform="matrix(1,0,0,1,-781,-821)">
        <g id="mainCharacter" transform="matrix(0.399192,0,0,0.399192,549.248,596.799)">
            <g transform="matrix(-1.2641,0,0,1,2875.18,147.342)">
                <g id="leftArm">
                    <path d="M1513.48,1389.19C1513.48,1389.19 1674.01,1376.47 1740.34,1641.01C1771.45,1765.07 1781.18,2040.29 1778.91,2167.34" style="fill:none;stroke:rgb(86,89,115);stroke-width:76.93px;"/>
                </g>
            </g>
            <g id="rightArm" transform="matrix(1,0,0,1,24.7532,165.022)">
                <path d="M1513.48,1389.19C1513.48,1389.19 1674.01,1376.47 1740.34,1641.01C1771.45,1765.07 1781.18,2040.29 1778.91,2167.34" style="fill:none;stroke:rgb(86,89,115);stroke-width:87.68px;"/>
            </g>
            <g transform="matrix(1,0,0,1,-13.1747,-135.598)">
                <g id="rightLeg">
                    <path d="M1310.77,1828.93L1310.77,3200.6L1461.15,3200.6" style="fill:none;stroke:rgb(86,89,115);stroke-width:87.68px;"/>
                </g>
            </g>
            <g transform="matrix(1,0,0,1,-181.51,-135.635)">
                <g id="leftLeg">
                    <path d="M1310.77,1828.93L1310.77,3200.6L1146.72,3200.6" style="fill:none;stroke:rgb(86,89,115);stroke-width:87.68px;"/>
                </g>
            </g>
            <g transform="matrix(1,0,0,0.634495,225.486,733.816)">
                <g id="torso">
                    <path d="M674.971,1158.83L1325.74,1158.83C1325.74,1158.83 1359.99,1812.45 991.793,1812.45C623.595,1812.45 674.971,1158.83 674.971,1158.83Z" style="fill:rgb(255,199,71);"/>
                </g>
            </g>
            <g transform="matrix(1,0,0,1.35775,0,-201.057)">
                <g id="Head">
                    <path d="M900.471,1230.09C904.269,1150.28 898.528,1071.02 884.451,993.032C866.204,893.51 912.122,793.422 1008.59,722.448C1008.53,722.403 1008.53,722.402 1008.53,722.402C1065.77,680.292 1143.62,656.934 1224.51,657.6C1305.41,658.266 1382.53,682.899 1438.48,725.941C1450.88,735.484 1463.08,744.867 1474.82,753.904C1544.05,807.168 1577.63,880.309 1566.49,953.586C1552.75,1043.02 1545.8,1134.91 1551.22,1230.09L900.471,1230.09Z" style="fill:rgb(255,222,185);"/>
                </g>
            </g>
            <g id="Hair" transform="matrix(1,0,0,1,-0.160222,74.1041)">
                <g transform="matrix(1,0,0,1,-17.9215,-1.62922)">
                    <ellipse cx="957.736" cy="744.259" rx="68.427" ry="65.984" style="fill:rgb(255,222,185);"/>
                </g>
                <g transform="matrix(1,0,0,1,-50.9947,54.3408)">
                    <ellipse cx="957.736" cy="744.259" rx="68.427" ry="65.984" style="fill:rgb(255,222,185);"/>
                </g>
                <g transform="matrix(1,0,0,1,60.2813,-66.7982)">
                    <ellipse cx="957.736" cy="744.259" rx="68.427" ry="65.984" style="fill:rgb(255,222,185);"/>
                </g>
                <g transform="matrix(1,0,0,1,149.889,-92.8658)">
                    <ellipse cx="957.736" cy="744.259" rx="68.427" ry="65.984" style="fill:rgb(255,222,185);"/>
                </g>
                <g transform="matrix(1,0,0,1,247.642,-104.27)">
                    <ellipse cx="957.736" cy="744.259" rx="68.427" ry="65.984" style="fill:rgb(255,222,185);"/>
                </g>
                <g transform="matrix(1,0,0,1,338.879,-94.495)">
                    <ellipse cx="957.736" cy="744.259" rx="68.427" ry="65.984" style="fill:rgb(255,222,185);"/>
                </g>
                <g transform="matrix(1,0,0,1,436.632,-65.169)">
                    <ellipse cx="957.736" cy="744.259" rx="68.427" ry="65.984" style="fill:rgb(255,222,185);"/>
                </g>
                <g transform="matrix(1,0,0,1,508.318,-17.9215)">
                    <ellipse cx="957.736" cy="744.259" rx="68.427" ry="65.984" style="fill:rgb(255,222,185);"/>
                </g>
                <g transform="matrix(1,0,0,1,569.376,50.7691)">
                    <ellipse cx="957.736" cy="744.259" rx="68.427" ry="65.984" style="fill:rgb(255,222,185);"/>
                </g>
            </g>
            <g id="leftEye" transform="matrix(1,0,0,1,-5.53239,77.4534)">
                <g transform="matrix(1,0,0,1,48.5541,-1.73408)">
                    <circle cx="1111.56" cy="917.966" r="67.195" style="fill:rgb(254,254,254);"/>
                </g>
                <g transform="matrix(1.47739,0,0,1.47739,-588.795,-482.516)">
                    <circle cx="1189.16" cy="948.746" r="25.144"/>
                </g>
            </g>
            <g id="rightEye" transform="matrix(1,0,0,1,-5.53239,77.4534)">
                <g transform="matrix(1,0,0,1,187.28,-1.73408)">
                    <circle cx="1111.56" cy="917.966" r="67.195" style="fill:rgb(254,254,254);"/>
                </g>
                <g transform="matrix(1.47739,0,0,1.47739,-460.449,-482.516)">
                    <circle cx="1189.16" cy="948.746" r="25.144"/>
                </g>
            </g>
            <g transform="matrix(0.694553,0,0,0.873418,376.7,149.726)">
                <g id="mouth">
                    <path d="M1077.5,1111.3C1091.33,1123.47 1125.08,1152.24 1219.69,1152.24C1314.3,1152.24 1341.96,1125.68 1361.88,1108.53" style="fill:none;stroke:rgb(112,68,49);stroke-width:31.75px;"/>
                </g>
            </g>
            <g transform="matrix(1,0,0,1,19.9363,5.19609)">
                <g id="leftEyebrow">
                    <path d="M1084.12,881.917C1075.1,890.4 1096.31,860.71 1123.88,860.71C1151.45,860.71 1154.1,868.132 1161.52,876.085" style="fill:none;stroke:rgb(112,68,49);stroke-width:25.05px;"/>
                </g>
            </g>
            <g transform="matrix(-0.893752,0,0,1,2297.61,4.45461)">
                <g id="rigthEyebrow">
                    <path d="M1084.12,881.917C1075.1,890.4 1096.31,860.71 1123.88,860.71C1151.45,860.71 1154.1,868.132 1161.52,876.085" style="fill:none;stroke:rgb(112,68,49);stroke-width:26.41px;"/>
                </g>
            </g>
        </g>
    </g>
</svg>
