<?xml version="1.0" encoding="UTF-8" standalone="no"?>
<!DOCTYPE svg PUBLIC "-//W3C//DTD SVG 1.1//EN" "http://www.w3.org/Graphics/SVG/1.1/DTD/svg11.dtd">
<svg width="100%" height="100%" viewBox="0 0 303 608" version="1.1" xmlns="http://www.w3.org/2000/svg" xmlns:xlink="http://www.w3.org/1999/xlink" xml:space="preserve" xmlns:serif="http://www.serif.com/" style="fill-rule:evenodd;clip-rule:evenodd;stroke-linecap:round;stroke-linejoin:round;stroke-miterlimit:1.5;">
    <g transform="matrix(1,0,0,1,-835,-497)">
        <g transform="matrix(0.237928,0,0,0.237928,774.929,212.871)">
            <g transform="matrix(1,0,0,1,-324.77,637.623)">
                <g transform="matrix(-1.2641,0,0,1,2875.18,147.342)">
                    <path d="M1513.48,1389.19C1513.48,1389.19 1674.01,1376.47 1740.34,1641.01C1771.45,1765.07 1781.18,2040.29 1778.91,2167.34" style="fill:none;stroke:rgb(86,89,115);stroke-width:81.13px;"/>
                </g>
                <g transform="matrix(1,0,0,1,24.7532,165.022)">
                    <path d="M1513.48,1389.19C1513.48,1389.19 1674.01,1376.47 1740.34,1641.01C1771.45,1765.07 1781.18,2040.29 1778.91,2167.34" style="fill:none;stroke:rgb(86,89,115);stroke-width:92.46px;"/>
                </g>
                <g transform="matrix(1,0,0,1,-13.1747,-135.598)">
                    <path d="M1310.77,1828.93L1310.77,3200.6L1461.15,3200.6" style="fill:none;stroke:rgb(86,89,115);stroke-width:92.46px;"/>
                </g>
                <g transform="matrix(1,0,0,1,-181.51,-135.635)">
                    <path d="M1310.77,1828.93L1310.77,3200.6L1146.72,3200.6" style="fill:none;stroke:rgb(86,89,115);stroke-width:92.46px;"/>
                </g>
                <g transform="matrix(1.1418,0,0,0.634495,78.2898,731.088)">
                    <path d="M674.971,1158.83L1325.74,1158.83C1325.74,1158.83 1359.99,1812.45 991.793,1812.45C623.595,1812.45 674.971,1158.83 674.971,1158.83Z" style="fill:rgb(155,115,180);"/>
                </g>
                <g transform="matrix(1.1418,0,0,1.35775,-179.171,-203.785)">
                    <path d="M900.471,1230.09C903.171,1173.34 903.812,1116.7 903.664,1061.01C904.386,921.577 968.844,787.719 1083.69,687.152C1083.61,687.082 1083.61,687.081 1083.61,687.08C1120.89,654.437 1172.35,635.939 1226.16,635.833C1279.98,635.727 1331.54,654.021 1369,686.516C1374.49,691.286 1380.02,696.078 1385.54,700.871C1486.74,788.652 1543.99,905.755 1545.48,1028.01C1545.88,1093.95 1547.33,1161.74 1551.22,1230.09L900.471,1230.09Z" style="fill:rgb(255,222,185);"/>
                </g>
                <g transform="matrix(1,0,0,1,17.2381,88.5274)">
                    <ellipse cx="957.736" cy="744.259" rx="68.427" ry="65.984" style="fill:rgb(156,156,156);"/>
                </g>
                <g transform="matrix(1,0,0,1,-32.9606,158.769)">
                    <ellipse cx="957.736" cy="744.259" rx="68.427" ry="65.984" style="fill:rgb(156,156,156);"/>
                </g>
                <g transform="matrix(1,0,0,1,87.9265,47.2408)">
                    <ellipse cx="957.736" cy="744.259" rx="68.427" ry="65.984" style="fill:rgb(156,156,156);"/>
                </g>
                <g transform="matrix(1,0,0,1,417.586,45.7029)">
                    <ellipse cx="957.736" cy="744.259" rx="68.427" ry="65.984" style="fill:rgb(156,156,156);"/>
                </g>
                <g transform="matrix(1,0,0,1,496.716,84.5415)">
                    <ellipse cx="957.736" cy="744.259" rx="68.427" ry="65.984" style="fill:rgb(156,156,156);"/>
                </g>
                <g transform="matrix(1,0,0,1,564.162,148.121)">
                    <ellipse cx="957.736" cy="744.259" rx="68.427" ry="65.984" style="fill:rgb(156,156,156);"/>
                </g>
                <g transform="matrix(1,0,0,1,37.4995,173.279)">
                    <circle cx="1111.56" cy="917.966" r="67.195" style="fill:rgb(254,254,254);"/>
                </g>
                <g transform="matrix(1.47739,0,0,1.47739,-599.849,-307.503)">
                    <circle cx="1189.16" cy="948.746" r="25.144"/>
                </g>
                <g transform="matrix(1,0,0,1,176.226,173.279)">
                    <circle cx="1111.56" cy="917.966" r="67.195" style="fill:rgb(254,254,254);"/>
                </g>
                <g transform="matrix(1.47739,0,0,1.47739,-471.504,-307.503)">
                    <circle cx="1189.16" cy="948.746" r="25.144"/>
                </g>
                <g transform="matrix(0.694553,0,0,0.873418,373.722,240.087)">
                    <path d="M1077.5,1111.3C1091.33,1123.47 1125.08,1152.24 1219.69,1152.24C1314.3,1152.24 1341.96,1125.68 1361.88,1108.53" style="fill:none;stroke:rgb(112,68,49);stroke-width:53.26px;"/>
                </g>
                <g transform="matrix(1,0,0,1,14.414,102.756)">
                    <path d="M1084.12,881.917C1075.1,890.4 1096.31,860.71 1123.88,860.71C1151.45,860.71 1154.1,868.132 1161.52,876.085" style="fill:none;stroke:rgb(156,156,156);stroke-width:42.03px;"/>
                </g>
                <g transform="matrix(-0.893752,0,0,1,2292.09,102.015)">
                    <path d="M1084.12,881.917C1075.1,890.4 1096.31,860.71 1123.88,860.71C1151.45,860.71 1154.1,868.132 1161.52,876.085" style="fill:none;stroke:rgb(156,156,156);stroke-width:44.32px;"/>
                </g>
            </g>
        </g>
    </g>
</svg>
