<?xml version="1.0" encoding="UTF-8" standalone="no"?>
<!DOCTYPE svg PUBLIC "-//W3C//DTD SVG 1.1//EN" "http://www.w3.org/Graphics/SVG/1.1/DTD/svg11.dtd">
<svg width="100%" height="100%" viewBox="0 0 492 1092" version="1.1" xmlns="http://www.w3.org/2000/svg" xmlns:xlink="http://www.w3.org/1999/xlink" xml:space="preserve" xmlns:serif="http://www.serif.com/" style="fill-rule:evenodd;clip-rule:evenodd;stroke-linecap:round;stroke-linejoin:round;stroke-miterlimit:1.5;">
    <g transform="matrix(1,0,0,1,-1826,-715)">
        <g id="Mother" transform="matrix(0.428145,0,0,0.428145,1636.93,507.812)">
            <g transform="matrix(-1.2641,0,0,1,2738.95,57.9063)">
                <g id="leftArm">
                    <path d="M1513.48,1389.19C1513.48,1389.19 1674.01,1376.47 1740.34,1641.01C1771.45,1765.07 1781.18,2040.29 1778.91,2167.34" style="fill:none;stroke:rgb(86,89,115);stroke-width:81.97px;"/>
                </g>
            </g>
            <g transform="matrix(1,0,0,1,-235.757,60.964)">
                <g id="rightArm">
                    <path d="M1513.48,1389.19C1513.48,1389.19 1674.01,1376.47 1740.34,1641.01C1771.45,1765.07 1781.18,2040.29 1778.91,2167.34" style="fill:none;stroke:rgb(86,89,115);stroke-width:93.43px;"/>
                </g>
            </g>
            <g transform="matrix(1,0,0,1,-200.576,-214.067)">
                <g id="rightLeg">
                    <path d="M1310.77,1828.93L1310.77,3200.6L1461.15,3200.6" style="fill:none;stroke:rgb(86,89,115);stroke-width:93.43px;"/>
                </g>
            </g>
            <g transform="matrix(1,0,0,1,-368.911,-214.104)">
                <g id="leftLeg">
                    <path d="M1310.77,1828.93L1310.77,3200.6L1146.72,3200.6" style="fill:none;stroke:rgb(86,89,115);stroke-width:93.43px;"/>
                </g>
            </g>
            <g transform="matrix(0.896419,0,0,0.959564,139.678,279.028)">
                <g id="torso">
                    <path d="M674.971,1158.83L1325.74,1158.83C1325.74,1158.83 1359.99,1812.45 991.793,1812.45C623.595,1812.45 674.971,1158.83 674.971,1158.83Z" style="fill:rgb(217,135,140);"/>
                </g>
            </g>
            <g transform="matrix(1,0,0,1.35775,-187.401,-279.526)">
                <g id="Head">
                    <path d="M932.166,1230.42C934.867,1173.66 916.829,1116.06 892.164,1058.83C833.293,922.581 890.9,773.609 1038.41,680.647C1038.4,680.638 1038.4,680.637 1038.4,680.637C1145.42,613.19 1303.99,615.268 1407.69,685.477C1428.27,699.412 1449.17,713.564 1469.55,727.363C1575.95,799.402 1615.87,910.393 1571.83,1011.78C1540.34,1082.9 1511.24,1155.67 1515.5,1230.38L932.166,1230.42Z" style="fill:rgb(255,222,185);"/>
                </g>
            </g>
            <g transform="matrix(1,0,0,1.35775,-187.401,-279.526)">
                <g id="Hair">
                    <path d="M885.475,862.054C888.783,823.482 940.616,738.154 954.768,719.933C956.932,717.779 959.483,715.851 962.351,714.201C975.046,706.715 1012.64,685.098 1055.57,660.411C1155.66,602.86 1296.12,602.986 1396.02,660.716C1396.02,660.716 1396.02,660.716 1396.02,660.717C1406.01,666.492 1415.26,672.94 1423.63,679.976C1441.24,694.874 1461.13,714.66 1475.88,731.649C1455.41,751.012 1428.64,751.821 1397.41,739.487C1338.95,707.679 1302.8,716.964 1280.2,751.195C1264.24,773.639 1221.63,778.907 1148.29,764.371C1086.39,743.87 1034.3,747.464 993.917,779.791C971.516,820.997 947.327,847.261 885.475,862.054Z" style="fill:rgb(112,68,49);"/>
                </g>
            </g>
            <g id="leftEye" transform="matrix(1,0,0,1,642.267,74.4547)">
                <g transform="matrix(1,0,0,1,-788.453,-80.2035)">
                    <circle cx="1111.56" cy="917.966" r="67.195" style="fill:rgb(254,254,254);"/>
                </g>
                <g transform="matrix(1.47739,0,0,1.47739,-1425.8,-560.986)">
                    <circle cx="1189.16" cy="948.746" r="25.144"/>
                </g>
            </g>
            <g id="rightEye" transform="matrix(1,0,0,1,642.267,74.4547)">
                <g transform="matrix(1,0,0,1,-649.727,-80.2035)">
                    <circle cx="1111.56" cy="917.966" r="67.195" style="fill:rgb(254,254,254);"/>
                </g>
                <g transform="matrix(1.47739,0,0,1.47739,-1297.46,-560.986)">
                    <circle cx="1189.16" cy="948.746" r="25.144"/>
                </g>
            </g>
            <g transform="matrix(0.694553,0,0,0.873418,187.493,68.2578)">
                <g id="mouth">
                    <path d="M1077.5,1111.3C1091.33,1123.47 1125.08,1152.24 1219.69,1152.24C1314.3,1152.24 1341.96,1125.68 1361.88,1108.53" style="fill:none;stroke:rgb(112,68,49);stroke-width:29.6px;"/>
                </g>
            </g>
            <g transform="matrix(1.02947,0,0,1.02947,-14.6847,-117.815)">
                <g id="leftCheek">
                    <g>
                        <circle cx="789.227" cy="1082.54" r="48.749" style="fill:rgb(250,213,172);"/>
                    </g>
                </g>
            </g>
            <g transform="matrix(1.02947,0,0,1.02947,446.242,-114.557)">
                <g id="rigthCheek">
                    <circle cx="789.227" cy="1082.54" r="48.749" style="fill:rgb(250,213,172);"/>
                </g>
            </g>
        </g>
    </g>
</svg>
